<svg width="253" height="143" viewBox="0 0 253 143" fill="none" xmlns="http://www.w3.org/2000/svg">
<path d="M-1.56241 118.514L-11.4229 94.849H-1.56241H8.29812L18.1587 118.514L8.29812 142.18H-1.56241H-11.4229L-1.56241 118.514Z" fill="white" fill-opacity="0.06"/>
<path d="M34.3299 118.514L24.4694 94.849H34.3299H44.1905L54.051 118.514L44.1905 142.18H34.3299H24.4694L34.3299 118.514Z" fill="white" fill-opacity="0.06"/>
<path d="M70.2223 118.514L60.3617 94.849H70.2223H80.0828L89.9433 118.514L80.0828 142.18H70.2223H60.3617L70.2223 118.514Z" fill="white" fill-opacity="0.06"/>
<path d="M106.115 118.514L96.2541 94.849H106.115H115.975L125.836 118.514L115.975 142.18H106.115H96.2541L106.115 118.514Z" fill="white" fill-opacity="0.06"/>
<path d="M142.007 118.514L132.146 94.849H142.007H151.867L161.728 118.514L151.867 142.18H142.007H132.146L142.007 118.514Z" fill="white" fill-opacity="0.06"/>
<path d="M177.899 118.514L168.039 94.849H177.899H187.76L197.62 118.514L187.76 142.18H177.899H168.039L177.899 118.514Z" fill="white" fill-opacity="0.06"/>
<path d="M213.792 118.514L203.931 94.849H213.792H223.652L233.513 118.514L223.652 142.18H213.792H203.931L213.792 118.514Z" fill="white" fill-opacity="0.06"/>
<path d="M249.684 118.514L239.823 94.849H249.684H259.544L269.405 118.514L259.544 142.18H249.684H239.823L249.684 118.514Z" fill="white" fill-opacity="0.06"/>
<path d="M16.1866 71.1838L6.32602 47.5185H16.1866L26.0471 47.5185L35.9076 71.1838L26.0471 94.849H16.1866H6.32602L16.1866 71.1838Z" fill="white" fill-opacity="0.06"/>
<path d="M52.0789 71.1837L42.2183 47.5184H52.0789L61.9394 47.5184L71.7999 71.1837L61.9394 94.849H52.0789H42.2183L52.0789 71.1837Z" fill="white" fill-opacity="0.06"/>
<path d="M87.9712 71.1837L78.1107 47.5184H87.9712L97.8318 47.5184L107.692 71.1837L97.8318 94.849H87.9712H78.1107L87.9712 71.1837Z" fill="white" fill-opacity="0.06"/>
<path d="M123.864 71.1837L114.003 47.5185H123.864L133.724 47.5185L143.585 71.1837L133.724 94.849H123.864H114.003L123.864 71.1837Z" fill="white" fill-opacity="0.06"/>
<path d="M159.756 71.1837L149.895 47.5184H159.756L169.616 47.5184L179.477 71.1837L169.616 94.849H159.756H149.895L159.756 71.1837Z" fill="white" fill-opacity="0.06"/>
<path d="M195.648 71.1837L185.788 47.5184H195.648L205.509 47.5184L215.369 71.1837L205.509 94.849H195.648H185.788L195.648 71.1837Z" fill="white" fill-opacity="0.06"/>
<path d="M231.541 71.1837L221.68 47.5184H231.541L241.401 47.5184L251.262 71.1837L241.401 94.849H231.541H221.68L231.541 71.1837Z" fill="white" fill-opacity="0.06"/>
<path d="M-1.95688 23.8532L-11.8174 0.187897L-1.95688 0.187897L7.90365 0.187897L17.7642 23.8532L7.90365 47.5184L-1.95688 47.5184H-11.8174L-1.95688 23.8532Z" fill="white" fill-opacity="0.06"/>
<path d="M33.9355 23.8531L24.075 0.187866L33.9355 0.187866L43.796 0.187866L53.6566 23.8531L43.796 47.5184L33.9355 47.5184H24.075L33.9355 23.8531Z" fill="white" fill-opacity="0.06"/>
<path d="M69.8278 23.8532L59.9673 0.187897L69.8278 0.187897L79.6883 0.187897L89.5489 23.8532L79.6883 47.5184L69.8278 47.5184H59.9673L69.8278 23.8532Z" fill="white" fill-opacity="0.06"/>
<path d="M105.72 23.8531L95.8596 0.187866L105.72 0.187866L115.581 0.187866L125.441 23.8531L115.581 47.5184L105.72 47.5184H95.8596L105.72 23.8531Z" fill="white" fill-opacity="0.06"/>
<path d="M141.613 23.8532L131.752 0.187927L141.613 0.187927L151.473 0.187927L161.334 23.8532L151.473 47.5185L141.613 47.5185H131.752L141.613 23.8532Z" fill="white" fill-opacity="0.06"/>
<path d="M177.505 23.8531L167.644 0.187866L177.505 0.187866L187.365 0.187866L197.226 23.8531L187.365 47.5184L177.505 47.5184H167.644L177.505 23.8531Z" fill="white" fill-opacity="0.06"/>
<path d="M213.397 23.8532L203.537 0.187897L213.397 0.187897L223.258 0.187897L233.118 23.8532L223.258 47.5184L213.397 47.5184H203.537L213.397 23.8532Z" fill="white" fill-opacity="0.06"/>
<path d="M249.29 23.8532L239.429 0.187897L249.29 0.187897L259.15 0.187897L269.011 23.8532L259.15 47.5184L249.29 47.5184H239.429L249.29 23.8532Z" fill="white" fill-opacity="0.06"/>
</svg>
