<svg width="11" height="10" viewBox="0 0 11 10" fill="none" xmlns="http://www.w3.org/2000/svg">
<path d="M9.38182 2.94287L7.01529 2.94287" stroke="#3D5278" stroke-width="0.591632" stroke-miterlimit="10" stroke-linecap="round" stroke-linejoin="round"/>
<path d="M3.07109 2.94287H1.49341" stroke="#3D5278" stroke-width="0.591632" stroke-miterlimit="10" stroke-linecap="round" stroke-linejoin="round"/>
<path d="M4.64879 4.32333C5.4112 4.32333 6.02926 3.70527 6.02926 2.94285C6.02926 2.18044 5.4112 1.56238 4.64879 1.56238C3.88637 1.56238 3.26831 2.18044 3.26831 2.94285C3.26831 3.70527 3.88637 4.32333 4.64879 4.32333Z" stroke="#3D5278" stroke-width="0.591632" stroke-miterlimit="10" stroke-linecap="round" stroke-linejoin="round"/>
<path d="M9.38182 7.28149H7.80414" stroke="#3D5278" stroke-width="0.591632" stroke-miterlimit="10" stroke-linecap="round" stroke-linejoin="round"/>
<path d="M3.85994 7.28149H1.49341" stroke="#3D5278" stroke-width="0.591632" stroke-miterlimit="10" stroke-linecap="round" stroke-linejoin="round"/>
<path d="M6.22645 8.66198C6.98887 8.66198 7.60693 8.04392 7.60693 7.28151C7.60693 6.51909 6.98887 5.90103 6.22645 5.90103C5.46404 5.90103 4.84598 6.51909 4.84598 7.28151C4.84598 8.04392 5.46404 8.66198 6.22645 8.66198Z" stroke="#3D5278" stroke-width="0.591632" stroke-miterlimit="10" stroke-linecap="round" stroke-linejoin="round"/>
</svg>
