<svg width="10" height="10" viewBox="0 0 10 10" fill="none" xmlns="http://www.w3.org/2000/svg">
<path d="M7.79829 6.09441L7.40387 5.43967C7.32104 5.29374 7.2461 5.01764 7.2461 4.85593V3.85804C7.2461 2.93115 6.7018 2.13048 5.9169 1.75578C5.7118 1.39291 5.33316 1.16809 4.89929 1.16809C4.46937 1.16809 4.08284 1.4008 3.87774 1.76761C3.10862 2.1502 2.57615 2.94299 2.57615 3.85804V4.85593C2.57615 5.01764 2.50121 5.29374 2.41838 5.43573L2.02002 6.09441C1.86225 6.35867 1.82675 6.65055 1.92536 6.91875C2.02002 7.18302 2.24484 7.38811 2.53671 7.48672C3.30189 7.74704 4.10651 7.87325 4.91113 7.87325C5.71575 7.87325 6.52037 7.74704 7.28554 7.49066C7.56164 7.39995 7.77463 7.1909 7.87717 6.91875C7.97972 6.6466 7.95211 6.34684 7.79829 6.09441Z" fill="#3D5278"/>
<path d="M6.01945 8.27161C5.85379 8.72914 5.41599 9.05651 4.90324 9.05651C4.59164 9.05651 4.284 8.9303 4.06706 8.70548C3.94085 8.58715 3.84619 8.42938 3.79097 8.26767C3.84224 8.27556 3.89352 8.2795 3.94874 8.28739C4.03946 8.29922 4.13412 8.31106 4.22878 8.31894C4.4536 8.33867 4.68236 8.3505 4.91113 8.3505C5.13595 8.3505 5.36077 8.33867 5.58164 8.31894C5.66447 8.31106 5.7473 8.30711 5.82618 8.29528C5.88929 8.28739 5.9524 8.2795 6.01945 8.27161Z" fill="#3D5278"/>
</svg>
