<svg width="10" height="10" viewBox="0 0 10 10" fill="none" xmlns="http://www.w3.org/2000/svg">
<path d="M8.34101 4.01576C7.62711 4.01576 7.33524 3.5109 7.69022 2.89166C7.89532 2.53273 7.77304 2.0752 7.41412 1.8701L6.73177 1.47963C6.42018 1.29425 6.01787 1.40469 5.83249 1.71628L5.78911 1.79122C5.43413 2.41046 4.85038 2.41046 4.49146 1.79122L4.44807 1.71628C4.27058 1.40469 3.86827 1.29425 3.55668 1.47963L2.87433 1.8701C2.51541 2.0752 2.39314 2.53668 2.59824 2.8956C2.95716 3.5109 2.66529 4.01576 1.95139 4.01576C1.54119 4.01576 1.20199 4.35101 1.20199 4.76516V5.45934C1.20199 5.86954 1.53724 6.20874 1.95139 6.20874C2.66529 6.20874 2.95716 6.7136 2.59824 7.33284C2.39314 7.69176 2.51541 8.14929 2.87433 8.35439L3.55668 8.74487C3.86827 8.93024 4.27058 8.81981 4.45596 8.50821L4.49935 8.43327C4.85433 7.81403 5.43807 7.81403 5.79699 8.43327L5.84038 8.50821C6.02576 8.81981 6.42807 8.93024 6.73966 8.74487L7.42201 8.35439C7.78093 8.14929 7.9032 7.68782 7.6981 7.33284C7.33918 6.7136 7.63105 6.20874 8.34496 6.20874C8.75515 6.20874 9.09436 5.87348 9.09436 5.45934V4.76516C9.09041 4.35496 8.75515 4.01576 8.34101 4.01576ZM5.1462 6.39412C4.44019 6.39412 3.86433 5.81826 3.86433 5.11225C3.86433 4.40623 4.44019 3.83038 5.1462 3.83038C5.85221 3.83038 6.42807 4.40623 6.42807 5.11225C6.42807 5.81826 5.85221 6.39412 5.1462 6.39412Z" fill="#3D5278"/>
</svg>
