<svg width="11" height="11" viewBox="0 0 11 11" fill="none" xmlns="http://www.w3.org/2000/svg">
<path d="M5.35055 1.37829C3.17335 1.37829 1.40634 3.1453 1.40634 5.3225C1.40634 7.49971 3.17335 9.26671 5.35055 9.26671C7.52776 9.26671 9.29477 7.49971 9.29477 5.3225C9.29477 3.1453 7.5317 1.37829 5.35055 1.37829Z" fill="#90A3BF"/>
<rect x="2.19519" y="2.16715" width="6.31074" height="6.31074" rx="3.15537" fill="white"/>
<path d="M5.35057 2.95591C4.04424 2.95591 2.98404 4.01611 2.98404 5.32244C2.98404 6.62876 4.04424 7.68897 5.35057 7.68897C6.65689 7.68897 7.71709 6.62876 7.71709 5.32244C7.71709 4.01611 6.65926 2.95591 5.35057 2.95591Z" fill="#90A3BF"/>
<rect x="3.77283" y="3.7448" width="3.15537" height="3.15537" rx="1.57769" fill="white"/>
<rect x="4.95615" y="7.29465" width="0.788842" height="1.57768" fill="#90A3BF"/>
<rect x="7.3226" y="4.92808" width="1.57768" height="0.788842" fill="#90A3BF"/>
<rect x="1.80078" y="4.9281" width="1.57768" height="0.788842" fill="#90A3BF"/>
</svg>
