<svg width="10" height="11" viewBox="0 0 10 11" fill="none" xmlns="http://www.w3.org/2000/svg">
<path d="M9.24168 4.26946L8.45284 3.87504C8.30691 3.80404 8.12547 3.85926 8.05448 4.0052C7.97954 4.15508 8.0387 4.33256 8.18464 4.40356L8.81176 4.71515V6.60443L7.33269 6.60838V2.56161C7.33269 1.77277 6.80416 1.37835 6.14942 1.37835L2.99405 1.37835C2.33931 1.37835 1.81079 1.77277 1.81079 2.56161V8.97096H1.21916C1.05744 8.97096 0.92334 9.10506 0.92334 9.26678C0.92334 9.42849 1.05744 9.56259 1.21916 9.56259L7.92432 9.56259C8.08603 9.56259 8.22013 9.42849 8.22013 9.26678C8.22013 9.10506 8.08603 8.97096 7.92432 8.97096H7.33269V7.20001L9.10758 7.19606C9.27324 7.19606 9.4034 7.06196 9.4034 6.90025V4.53372C9.4034 4.42328 9.34029 4.32073 9.24168 4.26946ZM2.79684 3.30707C2.79684 2.75882 3.1321 2.56161 3.5423 2.56161L5.60512 2.56161C6.01137 2.56161 6.34663 2.75882 6.34663 3.30707V3.79221C6.34663 4.33651 6.01137 4.53372 5.60118 4.53372L3.5423 4.53372C3.1321 4.53372 2.79684 4.33651 2.79684 3.78826V3.30707ZM2.99405 5.42117H4.17732C4.33903 5.42117 4.47313 5.55527 4.47313 5.71698C4.47313 5.8787 4.33903 6.0128 4.17732 6.0128H2.99405C2.83234 6.0128 2.69824 5.8787 2.69824 5.71698C2.69824 5.55527 2.83234 5.42117 2.99405 5.42117Z" fill="#90A3BF"/>
</svg>
