<svg width="11" height="11" viewBox="0 0 11 11" fill="none" xmlns="http://www.w3.org/2000/svg">
<path d="M4.45404 1.37835C3.42065 1.37835 2.58054 2.21847 2.58054 3.25185C2.58054 4.26551 3.37332 5.08591 4.40671 5.12141C4.43826 5.11746 4.46981 5.11746 4.49348 5.12141C4.50137 5.12141 4.50531 5.12141 4.5132 5.12141C4.51714 5.12141 4.51714 5.12141 4.52109 5.12141C5.53081 5.08591 6.32359 4.26551 6.32754 3.25185C6.32754 2.21847 5.48742 1.37835 4.45404 1.37835Z" fill="#90A3BF"/>
<path d="M6.45769 6.17057C5.35726 5.43695 3.56264 5.43695 2.45432 6.17057C1.9534 6.50583 1.67731 6.95941 1.67731 7.44455C1.67731 7.92969 1.9534 8.37933 2.45037 8.71064C3.00256 9.0814 3.7283 9.26678 4.45403 9.26678C5.17977 9.26678 5.9055 9.0814 6.45769 8.71064C6.95466 8.37539 7.23076 7.92575 7.23076 7.43666C7.22681 6.95153 6.95466 6.50189 6.45769 6.17057Z" fill="#90A3BF"/>
<path d="M8.78871 3.48456C8.85182 4.24973 8.30752 4.92025 7.55417 5.01097C7.55023 5.01097 7.55023 5.01097 7.54628 5.01097H7.53445C7.51078 5.01097 7.48712 5.01097 7.4674 5.01886C7.08481 5.03858 6.73378 4.91631 6.46951 4.69149C6.87577 4.32862 7.10848 3.78432 7.06114 3.19269C7.03354 2.8732 6.9231 2.58133 6.75744 2.33285C6.90732 2.25791 7.08087 2.21058 7.25836 2.1948C8.03142 2.12775 8.72166 2.7036 8.78871 3.48456Z" fill="#90A3BF"/>
<path d="M9.57755 7.13295C9.546 7.51554 9.30146 7.84686 8.89126 8.07168C8.49684 8.28861 7.99987 8.39116 7.50684 8.37933C7.79082 8.12295 7.95648 7.80347 7.98803 7.46427C8.02747 6.97519 7.79477 6.50582 7.32935 6.13112C7.06509 5.92208 6.75744 5.75642 6.42218 5.63415C7.29385 5.38172 8.39034 5.55133 9.0648 6.09563C9.42767 6.3875 9.61305 6.75431 9.57755 7.13295Z" fill="#90A3BF"/>
</svg>
